<?xml version="1.0" standalone="no"?>
<!DOCTYPE svg PUBLIC "-//W3C//DTD SVG 20010904//EN"
 "http://www.w3.org/TR/2001/REC-SVG-20010904/DTD/svg10.dtd">
<svg version="1.0" xmlns="http://www.w3.org/2000/svg"
 width="666.000000pt" height="375.000000pt" viewBox="0 0 666.000000 375.000000"
 preserveAspectRatio="xMidYMid meet">

<g transform="translate(0.000000,375.000000) scale(0.100000,-0.100000)"
fill="#000000" stroke="none">
<path d="M3920 2300 l0 -570 90 0 90 0 0 243 c0 233 1 244 24 292 40 88 108
126 193 110 45 -8 85 -49 101 -103 8 -26 12 -126 12 -291 l0 -251 91 0 91 0
-4 293 c-5 315 -9 342 -64 414 -41 54 -96 76 -190 76 -100 0 -155 -23 -214
-90 l-40 -46 0 247 0 246 -90 0 -90 0 0 -570z"/>
<path d="M3353 2815 c-195 -35 -298 -136 -297 -290 0 -138 66 -212 285 -323
190 -97 231 -140 215 -227 -14 -74 -95 -117 -220 -116 -92 0 -239 46 -261 81
-16 27 -23 2 -22 -82 l2 -93 40 -13 c189 -62 414 -51 528 25 94 64 141 174
118 277 -26 117 -107 196 -304 294 -69 34 -137 76 -155 95 -68 70 -48 163 45
208 37 18 62 22 142 22 92 -1 113 -5 214 -48 15 -6 17 1 17 78 l0 85 -34 12
c-32 10 -190 31 -226 29 -8 0 -47 -7 -87 -14z"/>
<path d="M130 2270 l0 -540 216 0 c219 0 259 5 341 41 151 67 218 245 147 395
-24 49 -86 99 -149 119 -30 9 -55 19 -55 21 0 2 15 10 33 18 88 36 150 134
150 236 0 89 -47 160 -137 207 -61 32 -147 42 -348 43 l-198 0 0 -540z m421
373 c69 -31 94 -95 68 -174 -27 -80 -84 -108 -216 -109 l-93 0 0 148 c0 82 2
151 5 154 3 3 47 5 98 4 68 -2 104 -7 138 -23z m-83 -434 c100 -10 133 -22
172 -64 20 -21 25 -39 28 -93 3 -57 0 -72 -20 -101 -40 -59 -86 -76 -220 -79
l-118 -4 0 169 c0 94 2 172 4 174 8 8 60 7 154 -2z"/>
<path d="M2660 2706 l-75 -22 -3 -92 -3 -92 -64 0 -65 0 0 -70 0 -70 65 0 65
0 0 -252 c0 -225 2 -258 19 -294 32 -70 100 -104 208 -104 35 0 79 7 98 14 34
15 35 16 35 74 l0 59 -67 -4 c-64 -5 -70 -3 -93 22 -25 27 -25 27 -28 255 l-3
229 93 3 93 3 3 68 3 67 -96 0 -95 0 0 115 c0 63 -3 115 -7 114 -5 0 -42 -10
-83 -23z"/>
<path d="M1294 2510 c-197 -29 -327 -239 -294 -475 25 -175 112 -281 259 -315
102 -24 286 0 359 46 19 13 22 23 22 79 0 36 -2 65 -3 65 -2 0 -33 -14 -68
-32 -58 -29 -73 -32 -154 -33 -78 0 -96 3 -135 25 -50 28 -85 74 -101 133 -19
70 -29 67 262 67 l262 0 -7 87 c-18 223 -114 341 -291 356 -33 2 -83 1 -111
-3z m146 -138 c41 -22 76 -80 86 -140 l7 -42 -182 0 c-99 0 -181 1 -181 3 0 2
7 26 15 53 14 48 63 106 110 132 31 18 107 14 145 -6z"/>
<path d="M2055 2510 c-147 -22 -235 -106 -235 -221 0 -111 56 -171 216 -233
115 -44 154 -75 154 -122 0 -44 -34 -80 -85 -90 -72 -13 -168 1 -229 34 l-57
31 3 -82 3 -82 60 -17 c166 -46 359 -4 439 95 26 32 31 48 34 106 7 124 -40
175 -236 256 -54 22 -101 49 -113 63 -53 68 14 142 129 142 47 0 137 -24 157
-41 20 -19 25 -6 25 66 l0 74 -37 10 c-57 14 -172 20 -228 11z"/>
<path d="M5093 2510 c-196 -27 -323 -184 -323 -400 0 -255 167 -414 418 -398
171 11 290 93 346 238 23 57 32 209 17 277 -45 212 -213 315 -458 283z m148
-141 c50 -17 103 -72 123 -129 26 -73 20 -217 -13 -284 -35 -70 -94 -106 -178
-106 -95 0 -156 37 -199 120 -26 51 -31 181 -10 254 35 121 157 184 277 145z"/>
<path d="M6120 2511 c-62 -10 -121 -43 -162 -91 -19 -22 -38 -40 -41 -40 -4 0
-7 27 -7 60 l0 60 -85 0 -85 0 0 -565 0 -565 85 0 85 0 0 231 0 231 54 -49
c65 -60 119 -78 211 -71 118 10 214 76 263 182 73 154 68 354 -12 491 -58 97
-174 145 -306 126z m67 -146 c89 -37 117 -94 117 -235 0 -88 -3 -113 -22 -155
-42 -91 -91 -126 -177 -127 -80 -1 -139 37 -172 109 -23 51 -25 64 -21 162 4
81 9 115 25 146 51 98 155 139 250 100z"/>
</g>
</svg>
